<svg style="margin: 50px;" xmlns="http://www.w3.org/2000/svg" xmlns:xlink="http://www.w3.org/1999/xlink" fill="none" version="1.1" width="600" height="372" viewBox="0 0 600 372"><g><g><path d="M276.4531483398438,110.9248046875L210.97454833984375,110.9248046875L210.97454833984375,352.5108046875L211.00000003984374,352.5108046875L211.00000003984374,371.9998046875L232.00004833984374,371.9998046875L232.00004833984374,241.9548046875L276.4531483398438,241.9548046875C312.61554833984377,241.9548046875,341.93154833984374,212.62280468749998,341.93154833984374,176.43960468749998C341.93154833984374,140.2568046875,312.61554833984377,110.9248046875,276.4531483398438,110.9248046875ZM232.00004833984374,131.3982046875L232.00004833984374,221.48080468749998L276.4531483398438,221.48080468749998Q285.03974833984375,221.48080468749998,293.02344833984375,218.3188046875Q301.6920483398437,214.88480468749998,308.2846483398438,208.2887046875Q314.87754833984377,201.6925046875,318.30854833984375,193.0191046875Q321.46954833984375,185.0310046875,321.46954833984375,176.43960468749998Q321.46954833984375,167.84820468750002,318.30854833984375,159.86010468749998Q314.87754833984377,151.1867046875,308.2846483398438,144.59050468750002Q301.69214833984375,137.9943046875,293.02344833984375,134.5606046875Q285.03974833984375,131.3982046875,276.4531483398438,131.3982046875L232.00004833984374,131.3982046875Z" fill-rule="evenodd" fill="#868686" fill-opacity="1"/></g><g><path d="M136.10871689453126,0L86.99981689453125,0L86.99981689453125,20.4734L115.64671689453125,20.4734L115.64671689453125,176.071C115.64671689453125,212.254,144.96241689453126,241.586,181.12531689453124,241.586L191.35581689453124,241.586L191.35581689453124,221.112L181.12531689453124,221.112Q172.53861689453123,221.112,164.55491689453123,217.95Q155.88631689453126,214.516,149.29381689453123,207.92Q142.70131689453126,201.324,139.26941689453125,192.651Q136.10871689453126,184.662,136.10871689453126,176.071L136.10871689453126,0Z" fill-rule="evenodd" fill="#868686" fill-opacity="1"/></g><g><path d="M427.47860000000003,111L362,111L362,352.586L362.0254517,352.586L362.0254517,372L383.0255,372L383.0255,242.03L427.47860000000003,242.03C463.641,242.03,492.957,212.69799999999998,492.957,176.51479999999998C492.957,140.332,463.641,111,427.47860000000003,111ZM383.0255,131.4734L383.0255,221.55599999999998L427.47860000000003,221.55599999999998Q436.0652,221.55599999999998,444.0489,218.394Q452.7175,214.95999999999998,459.31010000000003,208.3639Q465.903,201.7677,469.334,193.0943Q472.495,185.1062,472.495,176.51479999999998Q472.495,167.92340000000002,469.334,159.93529999999998Q465.903,151.2619,459.31010000000003,144.66570000000002Q452.7176,138.0695,444.0489,134.6358Q436.0652,131.4734,427.47860000000003,131.4734L383.0255,131.4734Z" fill-rule="evenodd" fill="#868686" fill-opacity="1"/></g><g transform="matrix(0.7069112062454224,0.7073023319244385,-0.7069112062454224,0.7073023319244385,92.80970492008237,-19.12259966740021)"><path d="M89.91821574707032,102.49453735351562L69.45051574707031,102.49453735351562L69.45051574707031,200.73953735351563L167.69551574707032,200.73953735351563L167.69551574707032,180.27183735351562L89.91821574707032,180.27183735351562L89.91821574707032,102.49453735351562Z" fill-rule="evenodd" fill="#464646" fill-opacity="1"/></g><g transform="matrix(-0.7069110870361328,-0.7073023319244385,0.7069112062454224,-0.7073022723197937,735.0919760655961,787.06470796543)"><path d="M551.0171995117188,241.20263671875L530.5494995117188,241.20263671875L530.5494995117188,339.44763671875L628.7944995117188,339.44763671875L628.7944995117188,318.97993671874997L551.0171995117188,318.97993671874997L551.0171995117188,241.20263671875Z" fill-rule="evenodd" fill="#464646" fill-opacity="1"/></g></g></svg>