<svg width="296" height="148" viewBox="0 0 600 372" xmlns="http://www.w3.org/2000/svg" fill="none">

 <g>
  <title>Layer 1</title>
  <rect stroke="null" id="svg_2" width="148" height="296" y="0" x="0" fill="#ffffff"/>
  <path stroke="null" id="svg_1" fill="#212121" d="m272.02015,67.08567a34.9748,34.9748 0 0 1 34.9748,34.9748l0,76.94457l76.94457,0a34.9748,34.9748 0 0 1 34.9748,34.9748l0,69.94961a34.9748,34.9748 0 0 1 -34.9748,34.9748l-181.86898,0a34.9748,34.9748 0 0 1 -34.9748,-34.9748l0,-181.86898a34.9748,34.9748 0 0 1 34.9748,-34.9748l69.94961,0zm6.99496,139.89922l-83.93953,0l0,76.94457a6.99496,6.99496 0 0 0 6.99496,6.99496l76.94457,0l0,-83.93953zm104.92441,0l-76.94457,0l0,83.93953l76.94457,0a6.99496,6.99496 0 0 0 6.99496,-6.99496l0,-69.94961a6.99496,6.99496 0 0 0 -6.99496,-6.99496zm-111.91937,-111.91937l-69.94961,0a6.99496,6.99496 0 0 0 -6.99496,6.99496l0,76.94457l83.93953,0l0,-76.94457a6.99496,6.99496 0 0 0 -6.99496,-6.99496zm103.28759,-41.87184l1.63682,-0.09793a13.98992,13.98992 0 0 1 13.89199,12.3531l0.09793,1.63682l0,27.97984l27.97984,0a13.98992,13.98992 0 0 1 13.89199,12.3531l0.09793,1.63682a13.98992,13.98992 0 0 1 -12.3531,13.89199l-1.63682,0.09793l-27.97984,0l0,27.97984a13.98992,13.98992 0 0 1 -12.3531,13.89199l-1.63682,0.09793a13.98992,13.98992 0 0 1 -13.89199,-12.3531l-0.09793,-1.63682l0,-27.97984l-27.97984,0a13.98992,13.98992 0 0 1 -13.89199,-12.3531l-0.09793,-1.63682a13.98992,13.98992 0 0 1 12.3531,-13.89199l1.63682,-0.09793l27.97984,0l0,-27.97984a13.98992,13.98992 0 0 1 12.3531,-13.89199l1.63682,-0.09793l-1.63682,0.09793z"/>
 </g>
</svg>